<svg width="1578" height="1591" viewBox="0 0 1578 1591" fill="none" xmlns="http://www.w3.org/2000/svg">
<path d="M669.403 812.682C669.04 809.015 667.479 806.167 664.722 804.136C661.964 802.106 658.222 801.091 653.494 801.091C650.282 801.091 647.57 801.545 645.358 802.455C643.146 803.333 641.449 804.561 640.267 806.136C639.116 807.712 638.54 809.5 638.54 811.5C638.479 813.167 638.828 814.621 639.585 815.864C640.373 817.106 641.449 818.182 642.812 819.091C644.176 819.97 645.752 820.742 647.54 821.409C649.328 822.045 651.237 822.591 653.267 823.045L661.631 825.045C665.691 825.955 669.419 827.167 672.812 828.682C676.206 830.197 679.146 832.061 681.631 834.273C684.116 836.485 686.04 839.091 687.403 842.091C688.797 845.091 689.509 848.53 689.54 852.409C689.509 858.106 688.055 863.045 685.176 867.227C682.328 871.379 678.206 874.606 672.812 876.909C667.449 879.182 660.979 880.318 653.403 880.318C645.888 880.318 639.343 879.167 633.767 876.864C628.222 874.561 623.888 871.152 620.767 866.636C617.676 862.091 616.055 856.47 615.903 849.773H634.949C635.161 852.894 636.055 855.5 637.631 857.591C639.237 859.652 641.373 861.212 644.04 862.273C646.737 863.303 649.782 863.818 653.176 863.818C656.509 863.818 659.403 863.333 661.858 862.364C664.343 861.394 666.267 860.045 667.631 858.318C668.994 856.591 669.676 854.606 669.676 852.364C669.676 850.273 669.055 848.515 667.812 847.091C666.6 845.667 664.813 844.455 662.449 843.455C660.116 842.455 657.252 841.545 653.858 840.727L643.722 838.182C635.873 836.273 629.676 833.288 625.131 829.227C620.585 825.167 618.328 819.697 618.358 812.818C618.328 807.182 619.828 802.258 622.858 798.045C625.919 793.833 630.116 790.545 635.449 788.182C640.782 785.818 646.843 784.636 653.631 784.636C660.54 784.636 666.57 785.818 671.722 788.182C676.903 790.545 680.934 793.833 683.812 798.045C686.691 802.258 688.176 807.136 688.267 812.682H669.403ZM733.96 880.364C726.809 880.364 720.657 878.848 715.506 875.818C710.384 872.758 706.445 868.515 703.688 863.091C700.96 857.667 699.597 851.424 699.597 844.364C699.597 837.212 700.975 830.939 703.733 825.545C706.521 820.121 710.475 815.894 715.597 812.864C720.718 809.803 726.809 808.273 733.869 808.273C739.96 808.273 745.294 809.379 749.869 811.591C754.445 813.803 758.066 816.909 760.733 820.909C763.4 824.909 764.869 829.606 765.142 835H746.869C746.354 831.515 744.991 828.712 742.778 826.591C740.597 824.439 737.733 823.364 734.188 823.364C731.188 823.364 728.566 824.182 726.324 825.818C724.112 827.424 722.384 829.773 721.142 832.864C719.9 835.955 719.278 839.697 719.278 844.091C719.278 848.545 719.884 852.333 721.097 855.455C722.339 858.576 724.081 860.955 726.324 862.591C728.566 864.227 731.188 865.045 734.188 865.045C736.4 865.045 738.384 864.591 740.142 863.682C741.93 862.773 743.4 861.455 744.551 859.727C745.733 857.97 746.506 855.864 746.869 853.409H765.142C764.839 858.742 763.384 863.439 760.778 867.5C758.203 871.53 754.642 874.682 750.097 876.955C745.551 879.227 740.172 880.364 733.96 880.364ZM777.54 879V809.182H796.312V821.364H797.04C798.313 817.03 800.449 813.758 803.449 811.545C806.449 809.303 809.903 808.182 813.812 808.182C814.782 808.182 815.828 808.242 816.949 808.364C818.07 808.485 819.055 808.652 819.903 808.864V826.045C818.994 825.773 817.737 825.53 816.131 825.318C814.525 825.106 813.055 825 811.722 825C808.873 825 806.328 825.621 804.085 826.864C801.873 828.076 800.116 829.773 798.812 831.955C797.54 834.136 796.903 836.652 796.903 839.5V879H777.54ZM858.21 880.364C851.15 880.364 845.044 878.864 839.892 875.864C834.771 872.833 830.816 868.621 828.028 863.227C825.241 857.803 823.847 851.515 823.847 844.364C823.847 837.152 825.241 830.848 828.028 825.455C830.816 820.03 834.771 815.818 839.892 812.818C845.044 809.788 851.15 808.273 858.21 808.273C865.271 808.273 871.362 809.788 876.483 812.818C881.634 815.818 885.604 820.03 888.392 825.455C891.18 830.848 892.574 837.152 892.574 844.364C892.574 851.515 891.18 857.803 888.392 863.227C885.604 868.621 881.634 872.833 876.483 875.864C871.362 878.864 865.271 880.364 858.21 880.364ZM858.301 865.364C861.513 865.364 864.195 864.455 866.347 862.636C868.498 860.788 870.119 858.273 871.21 855.091C872.331 851.909 872.892 848.288 872.892 844.227C872.892 840.167 872.331 836.545 871.21 833.364C870.119 830.182 868.498 827.667 866.347 825.818C864.195 823.97 861.513 823.045 858.301 823.045C855.059 823.045 852.331 823.97 850.119 825.818C847.938 827.667 846.286 830.182 845.165 833.364C844.074 836.545 843.528 840.167 843.528 844.227C843.528 848.288 844.074 851.909 845.165 855.091C846.286 858.273 847.938 860.788 850.119 862.636C852.331 864.455 855.059 865.364 858.301 865.364ZM924.528 785.909V879H905.165V785.909H924.528ZM959.403 785.909V879H940.04V785.909H959.403Z" fill="white"/>
<path d="M527.102 1123.64L783.5 1578.78L1039.9 1123.64L788.1 1424.23L783.5 1429.72L778.9 1424.23L527.102 1123.64Z" stroke="#F900FF" stroke-width="12"/>
</svg>
